<svg width="42" height="42" viewBox="0 0 42 42" fill="none" xmlns="http://www.w3.org/2000/svg">
<path fill-rule="evenodd" clip-rule="evenodd" d="M6.72378 6.7239C7.24448 6.2032 8.0887 6.2032 8.60939 6.7239L35.2761 33.3906C35.7968 33.9113 35.7968 34.7555 35.2761 35.2762C34.7554 35.7969 33.9111 35.7969 33.3904 35.2762L6.72378 8.60952C6.20308 8.08882 6.20308 7.2446 6.72378 6.7239Z" fill="#999999"/>
<path fill-rule="evenodd" clip-rule="evenodd" d="M21 26.4277C19.604 26.4277 18.2636 26.975 17.2667 27.9522C16.7408 28.4677 15.8966 28.4592 15.3811 27.9334C14.8657 27.4075 14.8741 26.5633 15.4 26.0478C16.8954 24.582 18.906 23.761 21 23.761C23.094 23.761 25.1046 24.582 26.6 26.0478C27.1259 26.5633 27.1343 27.4075 26.6189 27.9334C26.1034 28.4592 25.2592 28.4677 24.7333 27.9522C23.7364 26.975 22.396 26.4277 21 26.4277Z" fill="#999999"/>
<path fill-rule="evenodd" clip-rule="evenodd" d="M14.4543 12.7066C14.7415 13.3846 14.4247 14.1672 13.7466 14.4544C11.8465 15.2592 10.0929 16.3736 8.5573 17.7521C8.00933 18.2441 7.16634 18.1986 6.67442 17.6507C6.18249 17.1027 6.22793 16.2597 6.77589 15.7678C8.53087 14.1923 10.5349 12.9187 12.7066 11.9989C13.3846 11.7117 14.1671 12.0285 14.4543 12.7066Z" fill="#999999"/>
<path fill-rule="evenodd" clip-rule="evenodd" d="M33.4448 17.6741C29.4621 14.1146 24.3235 12.5466 19.3325 12.9946C18.5991 13.0605 17.9512 12.5193 17.8853 11.7859C17.8195 11.0524 18.3606 10.4045 19.0941 10.3387C24.7965 9.82672 30.6711 11.6187 35.2218 15.6858C35.7709 16.1765 35.8182 17.0194 35.3274 17.5685C34.8367 18.1175 33.9938 18.1648 33.4448 17.6741Z" fill="#999999"/>
<path fill-rule="evenodd" clip-rule="evenodd" d="M26.3018 19.3512C26.6601 18.7079 27.4721 18.4768 28.1154 18.8351C29.3103 19.5006 30.4063 20.33 31.3714 21.2991C31.891 21.8209 31.8893 22.6651 31.3675 23.1847C30.8457 23.7043 30.0015 23.7026 29.4819 23.1808C28.6922 22.3879 27.7955 21.7093 26.8179 21.1648C26.1745 20.8065 25.9435 19.9945 26.3018 19.3512Z" fill="#999999"/>
<path fill-rule="evenodd" clip-rule="evenodd" d="M19.964 18.4091C20.0989 19.133 19.6213 19.8292 18.8974 19.9641C16.5151 20.4078 14.3229 21.5625 12.6094 23.2761C12.0887 23.7968 11.2445 23.7968 10.7238 23.2761C10.2031 22.7554 10.2031 21.9112 10.7238 21.3905C12.818 19.2961 15.4973 17.8849 18.4091 17.3425C19.133 17.2076 19.8292 17.6852 19.964 18.4091Z" fill="#999999"/>
<path fill-rule="evenodd" clip-rule="evenodd" d="M19.6667 31.6667C19.6667 30.9303 20.2637 30.3334 21.0001 30.3334H21.0134C21.7498 30.3334 22.3467 30.9303 22.3467 31.6667C22.3467 32.4031 21.7498 33 21.0134 33H21.0001C20.2637 33 19.6667 32.4031 19.6667 31.6667Z" fill="#999999"/>
</svg>
