<svg width="91" height="48" viewBox="0 0 91 48" fill="none" xmlns="http://www.w3.org/2000/svg">
<path fill-rule="evenodd" clip-rule="evenodd" d="M30.5156 11.8253C29.7304 2.63809 39.1111 -1.45901 45.4895 2.51585L45.4895 13.8695H39.6421C38.7454 13.8695 38.4334 14.164 38.4334 15.0869V15.7152H45.4895V16.6381H30.1484C27.6921 16.6381 26.7174 18.4642 26.7174 22.568C26.7174 26.6718 27.6921 28.4782 30.1484 28.4782H45.4895L45.4894 31.6383H31.9795C19.8271 31.6383 16.8629 14.7744 30.5156 11.8253ZM45.4903 15.7152V16.6381H60.8516C63.3274 16.6381 64.2826 18.4838 64.2826 22.568C64.2826 26.6521 63.3079 28.4782 60.8516 28.4782H45.4903V31.6385L58.9775 31.6385C64.7673 31.6385 69.4798 27.1761 69.4798 21.6945C69.4798 16.5652 65.6302 12.7662 60.4345 11.8488C57.9884 7.71228 54.3882 6.22141 49.4626 6.96862C48.4599 4.97806 47.0823 3.51716 45.5244 2.53761L45.4903 2.51605V13.8695H51.3581C52.2743 13.8695 52.5667 14.164 52.5667 15.0869V15.7152H45.4903ZM38.3359 25.4151C38.102 25.7685 37.7901 26.0238 37.3807 26.2201C36.9713 26.4165 36.5229 26.495 35.9771 26.495H33.3649V18.6409H35.8796C36.406 18.6409 36.8543 18.7194 37.2442 18.8962C37.6341 19.0729 37.9265 19.3085 38.1605 19.603C38.3749 19.8976 38.4919 20.251 38.4919 20.6633C38.4919 20.9579 38.4334 21.2328 38.3359 21.4684C38.2384 21.704 38.063 21.8807 37.868 22.0378C37.6731 22.1949 37.4392 22.2734 37.1857 22.3127V22.3324C37.4782 22.352 37.7316 22.4698 37.9655 22.6465C38.1994 22.8232 38.3749 23.0392 38.4919 23.3141C38.6088 23.589 38.6868 23.8835 38.6868 24.237C38.6673 24.6886 38.5503 25.0813 38.3359 25.4151ZM44.8664 24.1977C44.8664 24.9439 44.6325 25.5329 44.1841 25.9649C43.7358 26.3969 43.0925 26.6129 42.2932 26.6129C41.494 26.6129 40.8701 26.3969 40.4218 25.9649C39.9734 25.5329 39.7395 24.9439 39.7395 24.1977V18.6409H41.338V24.1977C41.338 24.5315 41.416 24.7868 41.5914 24.9635C41.7669 25.1402 42.0008 25.2187 42.3127 25.2187C42.6051 25.2187 42.839 25.1402 43.0145 24.9635C43.1899 24.7868 43.2679 24.5315 43.2679 24.1977V18.6409H44.8664V24.1977ZM51.1046 25.5133C50.8901 25.8667 50.5782 26.1416 50.1688 26.3183C49.7595 26.5147 49.2916 26.6129 48.7458 26.6129C48.1999 26.6129 47.7126 26.5147 47.3032 26.3183C46.8938 26.122 46.5819 25.8471 46.348 25.4936C46.1141 25.1402 46.0166 24.7279 46.0166 24.237H47.5761C47.5761 24.5315 47.6736 24.7671 47.888 24.9439C48.1025 25.1206 48.3754 25.1991 48.7458 25.1991C49.0967 25.1991 49.3696 25.1206 49.5645 24.9439C49.7595 24.7671 49.8569 24.5511 49.8569 24.2763C49.8569 24.0603 49.7985 23.8443 49.662 23.6676C49.5255 23.4908 49.3501 23.373 49.0967 23.3141L48.1415 23.0785C47.5371 22.941 47.0498 22.6465 46.6794 22.2342C46.309 21.8218 46.1336 21.3309 46.1336 20.7419C46.1336 20.2706 46.231 19.8779 46.4455 19.5441C46.6404 19.2103 46.9328 18.9354 47.3227 18.7587C47.7126 18.582 48.1609 18.4838 48.6873 18.4838C49.2136 18.4838 49.662 18.582 50.0519 18.7587C50.4418 18.9354 50.7342 19.2103 50.9486 19.5441C51.163 19.8779 51.2605 20.2903 51.2605 20.7419H49.701C49.701 20.467 49.6035 20.251 49.4281 20.0939C49.2526 19.9368 48.9992 19.8583 48.6873 19.8583C48.3754 19.8583 48.1415 19.9368 47.966 20.0939C47.7906 20.251 47.7126 20.4474 47.7126 20.7026C47.7126 20.9186 47.7711 21.0757 47.9075 21.2131C48.044 21.3506 48.2194 21.4291 48.4534 21.488L49.4281 21.7237C50.0519 21.8611 50.5392 22.1556 50.8901 22.6072C51.241 23.0589 51.436 23.6086 51.436 24.2566C51.436 24.7475 51.319 25.1598 51.1046 25.5133ZM55.9391 23.7068V26.5147H54.3406V23.7068L52.0988 18.6409H53.7753L54.7695 21.0168C54.8669 21.2524 54.9644 21.5077 55.0229 21.7629C55.1009 22.0182 55.1593 22.2538 55.1788 22.4109C55.1918 22.3585 55.2048 22.2996 55.2193 22.2341C55.2482 22.1033 55.2828 21.9462 55.3348 21.7629C55.3775 21.5621 55.4411 21.3822 55.5026 21.208L55.5026 21.2079L55.5027 21.2078L55.5027 21.2077C55.5254 21.1436 55.5477 21.0802 55.5687 21.0168L56.5239 18.6409H58.2004L55.9391 23.7068ZM34.8265 14.1444C35.7427 14.1444 36.0351 14.4389 36.0351 15.3618V15.7152H30.8692V15.3618C30.8692 14.4389 31.1616 14.1444 32.0778 14.1444H34.8265ZM60.1893 15.3618C60.1893 14.4389 59.8969 14.1444 58.9806 14.1444H56.1735C55.2572 14.1444 54.9648 14.4389 54.9648 15.3618V15.7152H60.1893V15.3618ZM35.9184 23.0786H34.9242V25.1992H35.9379C36.2888 25.1992 36.5617 25.101 36.7567 24.9243C36.9516 24.728 37.0491 24.4727 37.0491 24.1389C37.0491 23.8051 36.9516 23.5498 36.7567 23.3535C36.5422 23.1768 36.2693 23.0786 35.9184 23.0786ZM36.8736 20.8594C36.8736 21.1539 36.7762 21.3699 36.6007 21.5466C36.4253 21.7234 36.1718 21.8019 35.8599 21.8019H34.9242V19.9365H35.8599C36.1718 19.9365 36.4253 20.0151 36.6007 20.1722C36.7762 20.3293 36.8736 20.5649 36.8736 20.8594Z" fill="#999999"/>
<path d="M32.85 46H27.186V37.42H28.506V44.86H32.85V46ZM37.0835 46.168C34.5155 46.168 32.8715 44.284 32.8715 41.704C32.8715 39.124 34.5155 37.252 37.0835 37.252C39.6515 37.252 41.2955 39.124 41.2955 41.704C41.2955 44.284 39.6515 46.168 37.0835 46.168ZM37.0835 45.028C39.1115 45.028 39.9155 43.468 39.9155 41.704C39.9155 39.94 39.1115 38.392 37.0835 38.392C35.0555 38.392 34.2515 39.94 34.2515 41.704C34.2515 43.468 35.0555 45.028 37.0835 45.028ZM46.0404 46.168C43.5684 46.168 42.1764 44.296 42.1764 41.704C42.1764 39.124 43.7484 37.252 46.1964 37.252C48.4164 37.252 49.5924 38.44 49.8684 40.072H48.4884C48.2604 38.992 47.4564 38.392 46.1844 38.392C44.2884 38.392 43.5564 40.096 43.5564 41.704C43.5564 43.324 44.1084 45.028 46.1124 45.028C47.5284 45.028 48.6564 44.044 48.6684 42.616H46.1364V41.512H50.0124V46H49.1004L48.7764 44.812H48.7524C48.1524 45.688 47.3484 46.168 46.0404 46.168ZM55.2599 46H53.9399V37.42H55.2599V46ZM58.2833 46H56.9633V37.42H58.4753L62.4593 44.02H62.4833V37.42H63.8153V46H62.3033L58.3073 39.4H58.2833V46Z" fill="#999999"/>
</svg>
