<svg width="24" height="24" viewBox="0 0 24 24" fill="none" xmlns="http://www.w3.org/2000/svg">
<path fill-rule="evenodd" clip-rule="evenodd" d="M19.8885 12.8685L21.9178 15.3221L19.8357 18.9283L16.696 18.3978C16.0513 18.2889 15.4201 18.6533 15.1921 19.2662L14.0818 22.2503H9.91762L8.80741 19.2662C8.57941 18.6533 7.94819 18.2889 7.30346 18.3978L4.1638 18.9283L2.0817 15.3221L4.11097 12.8685C4.52771 12.3646 4.52771 11.6357 4.11097 11.1319L2.0817 8.67821L4.1638 5.07184L7.30341 5.60247C7.94817 5.71144 8.57941 5.34698 8.80741 4.73412L9.91762 1.74988H14.0818L15.1921 4.73412C15.4201 5.34698 16.0513 5.71144 16.6961 5.60247L19.8357 5.07184L21.9178 8.67821L19.8885 11.1319C19.4718 11.6357 19.4718 12.3646 19.8885 12.8685ZM11.743 15.4869C13.8104 15.4869 15.4864 13.8109 15.4864 11.7435C15.4864 9.67609 13.8104 8.00012 11.743 8.00012C9.67563 8.00012 7.99966 9.67609 7.99966 11.7435C7.99966 13.8109 9.67563 15.4869 11.743 15.4869Z" fill="#666666"/>
</svg>
