<svg width="26" height="26" viewBox="0 0 26 26" fill="none" xmlns="http://www.w3.org/2000/svg">
<g clip-path="url(#clip0_105_8170)">
<rect x="10.8333" width="15.1667" height="2.16667" fill="black"/>
<rect x="6.5" y="2.16663" width="2.16667" height="2.16667" fill="black"/>
<rect y="4.33337" width="6.5" height="2.16667" fill="black"/>
<rect y="2.16663" width="6.5" height="2.16667" fill="black"/>
<rect x="2.16666" width="2.16667" height="2.16667" fill="black"/>
<rect x="4.33334" width="2.16667" height="2.16667" fill="black"/>
<rect x="4.33334" y="6.5" width="2.16667" height="2.16667" fill="black"/>
<rect x="2.16666" y="6.5" width="2.16667" height="2.16667" fill="black"/>
<rect x="4.33334" y="10.8334" width="2.16667" height="2.16667" fill="black"/>
<rect x="8.66666" y="8.66663" width="2.16667" height="2.16667" fill="black"/>
<rect x="10.8333" y="4.33337" width="2.16667" height="2.16667" fill="black"/>
<rect x="6.5" y="4.33337" width="2.16667" height="2.16667" fill="black"/>
<rect y="23.8334" width="26" height="2.16667" fill="black"/>
<rect y="10.8334" width="2.16667" height="13" fill="black"/>
<rect x="23.8333" y="2.16663" width="2.16667" height="21.6667" fill="black"/>
<rect x="8.66666" y="21.6666" width="2.16667" height="2.16667" fill="black"/>
<rect x="10.8333" y="21.6666" width="2.16667" height="2.16667" fill="black"/>
<rect x="13" y="19.5" width="2.16667" height="4.33333" fill="black"/>
<rect x="15.1667" y="17.3334" width="2.16667" height="6.5" fill="black"/>
<rect x="2.16666" y="19.5" width="2.16667" height="2.16667" fill="black"/>
<rect x="10.8333" y="19.5" width="2.16667" height="2.16667" fill="black"/>
<rect x="4.33334" y="17.3334" width="2.16667" height="2.16667" fill="black"/>
<rect x="13" y="17.3334" width="2.16667" height="2.16667" fill="black"/>
<rect x="6.5" y="15.1666" width="2.16667" height="2.16667" fill="black"/>
<rect x="8.66666" y="17.3334" width="2.16667" height="2.16667" fill="black"/>
<rect x="6.5" y="17.3334" width="2.16667" height="2.16667" fill="black"/>
<rect x="6.5" y="19.5" width="2.16667" height="2.16667" fill="black"/>
<rect x="4.33334" y="19.5" width="2.16667" height="2.16667" fill="black"/>
<rect x="4.33334" y="21.6666" width="2.16667" height="2.16667" fill="black"/>
<rect x="2.16666" y="21.6666" width="2.16667" height="2.16667" fill="black"/>
<rect x="17.3333" y="13" width="2.16667" height="10.8333" fill="black"/>
<rect x="15.1667" y="15.1666" width="2.16667" height="2.16667" fill="black"/>
<rect x="19.5" y="10.8334" width="2.16667" height="13" fill="black"/>
<rect x="21.6667" y="13" width="2.16667" height="10.8333" fill="black"/>
<rect x="23.8333" y="17.3334" width="2.16667" height="2.16667" fill="black"/>
</g>
<defs>
<clipPath id="clip0_105_8170">
<rect width="26" height="26" fill="white"/>
</clipPath>
</defs>
</svg>
