<svg width="92" height="48" viewBox="0 0 92 48" fill="none" xmlns="http://www.w3.org/2000/svg">
<path d="M69.3117 10.5C69.3117 12.1714 69.0753 13.1891 68.9486 13.6668C68.8218 14.1446 68.52 14.4906 68.0349 14.7414C67.5497 14.9923 66.7422 15 66.0147 15C65.394 15 51.2288 15 50.6075 15C49.8801 15 49.0731 14.9919 48.5873 14.7414C48.1016 14.491 47.8004 14.1446 47.6736 13.6668C47.5469 13.1891 47.3117 12.1714 47.3117 10.5C47.3117 8.82856 47.5481 7.8109 47.6748 7.33317C47.8016 6.85544 48.1034 6.50944 48.5885 6.25858C49.0737 6.00773 49.8813 6 50.6087 6C51.2294 6 65.3946 6 66.0159 6C66.7433 6 67.5503 6.00813 68.0361 6.25858C68.5212 6.50944 68.823 6.85544 68.9498 7.33317C69.0765 7.8109 69.3117 8.82856 69.3117 10.5Z" fill="#999999"/>
<path d="M69.3117 21.5C69.3117 23.1714 69.0753 24.1891 68.9486 24.6668C68.8218 25.1446 68.52 25.4906 68.0349 25.7414C67.5497 25.9923 66.7422 26 66.0147 26C65.394 26 51.2288 26 50.6075 26C49.8801 26 49.0731 25.9919 48.5873 25.7414C48.1016 25.491 47.8004 25.1446 47.6736 24.6668C47.5469 24.1891 47.3117 23.1714 47.3117 21.5C47.3117 19.8286 47.5481 18.8109 47.6748 18.3332C47.8016 17.8554 48.1034 17.5094 48.5885 17.2586C49.0737 17.0077 49.8813 17 50.6087 17C51.2294 17 65.3946 17 66.0159 17C66.7433 17 67.5503 17.0081 68.0361 17.2586C68.5212 17.5094 68.823 17.8554 68.9498 18.3332C69.0765 18.8109 69.3117 19.8286 69.3117 21.5Z" fill="#999999"/>
<path d="M45.3117 10.5C45.3117 12.1714 45.0753 13.1891 44.9486 13.6668C44.8218 14.1446 44.52 14.4906 44.0349 14.7414C43.5497 14.9923 42.7422 15 42.0147 15C41.394 15 27.2288 15 26.6075 15C25.8801 15 25.0731 14.9919 24.5873 14.7414C24.1016 14.491 23.8004 14.1446 23.6736 13.6668C23.5469 13.1891 23.3117 12.1714 23.3117 10.5C23.3117 8.82856 23.5481 7.8109 23.6748 7.33317C23.8016 6.85544 24.1034 6.50944 24.5885 6.25858C25.0737 6.00773 25.8813 6 26.6087 6C27.2294 6 41.3946 6 42.0159 6C42.7433 6 43.5503 6.00813 44.0361 6.25858C44.5212 6.50944 44.823 6.85544 44.9498 7.33317C45.0765 7.8109 45.3117 8.82856 45.3117 10.5Z" fill="#999999"/>
<path d="M45.3117 21.5C45.3117 23.1714 45.0753 24.1891 44.9486 24.6668C44.8218 25.1446 44.52 25.4906 44.0349 25.7414C43.5497 25.9923 42.7422 26 42.0147 26C41.394 26 27.2288 26 26.6075 26C25.8801 26 25.0731 25.9919 24.5873 25.7414C24.1016 25.491 23.8004 25.1446 23.6736 24.6668C23.5469 24.1891 23.3117 23.1714 23.3117 21.5C23.3117 19.8286 23.5481 18.8109 23.6748 18.3332C23.8016 17.8554 24.1034 17.5094 24.5885 17.2586C25.0737 17.0077 25.8813 17 26.6087 17C27.2294 17 41.3946 17 42.0159 17C42.7433 17 43.5503 17.0081 44.0361 17.2586C44.5212 17.5094 44.823 17.8554 44.9498 18.3332C45.0765 18.8109 45.3117 19.8286 45.3117 21.5Z" fill="#999999"/>
<path d="M32.5466 46H31.1546L34.3466 37.42H35.7746L38.9906 46H37.5506L36.8426 43.936H33.2546L32.5466 46ZM35.0426 38.644L33.6506 42.82H36.4706L35.0666 38.644H35.0426ZM41.2005 46H39.8805V37.42H43.4565C45.0765 37.42 46.2645 38.176 46.2645 39.976C46.2645 41.776 45.0765 42.52 43.4565 42.52H41.2005V46ZM41.2005 41.38H43.3965C44.3925 41.38 44.8965 40.936 44.8965 39.976C44.8965 39.004 44.3925 38.56 43.3965 38.56H41.2005V41.38ZM48.6888 46H47.3688V37.42H50.9448C52.5648 37.42 53.7528 38.176 53.7528 39.976C53.7528 41.776 52.5648 42.52 50.9448 42.52H48.6888V46ZM48.6888 41.38H50.8848C51.8808 41.38 52.3848 40.936 52.3848 39.976C52.3848 39.004 51.8808 38.56 50.8848 38.56H48.6888V41.38ZM58.0148 46.168C55.8428 46.168 54.3188 45.04 54.2228 43.108H55.5908C55.6868 44.26 56.3708 45.04 57.9788 45.04C59.3588 45.04 59.7788 44.44 59.7788 43.66C59.7788 42.568 58.9388 42.412 57.3788 42.016C56.0348 41.656 54.5588 41.224 54.5588 39.592C54.5588 38.104 55.7108 37.252 57.5588 37.252C59.5148 37.252 60.7868 38.248 60.9188 39.976H59.5508C59.4068 38.944 58.8188 38.38 57.5708 38.38C56.4908 38.38 55.9388 38.776 55.9388 39.52C55.9388 40.48 56.8388 40.684 57.9428 40.96C59.5988 41.38 61.1588 41.776 61.1588 43.588C61.1588 45.064 60.1628 46.168 58.0148 46.168Z" fill="#999999"/>
</svg>
