<svg width="342" height="49" viewBox="0 0 342 49" fill="none" xmlns="http://www.w3.org/2000/svg">
<g clip-path="url(#clip0_210_12319)">
<path d="M33.0864 25.7509C33.6737 25.1581 34 24.4337 34 23.4458C34 22.4579 33.6737 21.6675 33.0864 21.1407C32.4991 20.6138 31.6507 20.3503 30.6066 20.3503H27.4741V26.607H30.6066C31.6507 26.607 32.4991 26.3436 33.0864 25.7509Z" fill="black"/>
<path d="M30.8023 30.8877H27.4741V38.0006H30.8676C32.0423 38.0006 32.9559 37.6713 33.6085 37.0785C34.2611 36.4199 34.5874 35.5638 34.5874 34.4441C34.5874 33.3245 34.2611 32.4683 33.6085 31.8098C32.8906 31.217 31.977 30.8877 30.8023 30.8877Z" fill="black"/>
<path d="M154.272 27.2655L150.422 26.2118C149.508 25.9483 148.856 25.5532 148.334 24.8946C147.812 24.3018 147.616 23.5115 147.616 22.6553C147.616 21.5357 148.008 20.6795 148.725 19.9551C149.443 19.2965 150.422 18.9013 151.597 18.9013C152.771 18.9013 153.75 19.2306 154.533 19.9551C155.316 20.6137 155.643 21.5357 155.643 22.7212H159.428C159.428 21.2723 159.101 20.021 158.449 18.9672C157.796 17.9134 156.883 17.0572 155.708 16.4645C154.533 15.8718 153.163 15.5425 151.597 15.5425C150.031 15.5425 148.66 15.8718 147.485 16.4645C146.311 17.0572 145.397 17.9134 144.81 18.9672C144.157 20.021 143.831 21.2723 143.831 22.7212C143.831 24.4994 144.353 26.0142 145.332 27.2655C146.376 28.5827 147.747 29.4389 149.508 29.8999L153.293 30.8878C154.272 31.1513 155.055 31.6781 155.578 32.3368C156.1 33.0612 156.36 33.9174 156.36 34.8394C156.36 36.0908 155.969 37.1445 155.121 37.9348C154.337 38.7252 153.228 39.1203 151.793 39.1203C150.357 39.1203 149.247 38.7252 148.399 38.0007C147.551 37.2762 147.094 36.2225 147.094 34.8394H143.309C143.309 36.4201 143.635 37.8031 144.353 38.9886C145.071 40.1741 146.05 41.0303 147.355 41.623C148.66 42.2157 150.161 42.5451 151.858 42.5451C153.555 42.5451 155.055 42.2157 156.295 41.623C157.535 41.0303 158.514 40.1082 159.167 38.9886C159.819 37.869 160.146 36.4859 160.146 34.9053C160.146 32.9953 159.624 31.3489 158.579 29.9658C157.535 28.7145 156.1 27.7924 154.272 27.2655Z" fill="black"/>
<path d="M163.344 19.4948H170.327V42.3482H174.242V19.4948H181.225V16.0043H163.344V19.4948Z" fill="black"/>
<path d="M190.36 16.0043L183.704 42.4141H187.62L189.186 35.6964H196.625L198.191 42.4141H202.107L195.451 16.0043H190.36ZM189.904 32.4692L191.731 24.8295C192.057 23.5123 192.318 22.3268 192.514 21.3389C192.71 20.351 192.84 19.6924 192.905 19.2972C192.971 19.6924 193.101 20.351 193.297 21.3389C193.493 22.3268 193.754 23.5123 194.08 24.8954L195.842 32.5351H189.904V32.4692Z" fill="black"/>
<path d="M204.586 19.4948H211.569V42.3482H215.419V19.4948H222.402V16.0043H204.586V19.4948Z" fill="black"/>
<path d="M238.065 34.9719C238.065 36.2891 237.739 37.3429 237.086 38.1332C236.434 38.9235 235.455 39.3187 234.084 39.3187C232.714 39.3187 231.735 38.9235 231.082 38.1332C230.43 37.3429 230.104 36.2891 230.104 34.9719V16.0043H226.253V35.0378C226.253 37.4087 226.906 39.3187 228.276 40.7017C229.647 42.0848 231.539 42.8092 234.084 42.8092C236.629 42.8092 238.522 42.1506 239.892 40.7017C241.263 39.2528 241.915 37.4087 241.915 35.0378V16.0043H238.065V34.9719Z" fill="black"/>
<path d="M257.317 27.2655L253.466 26.2118C252.553 25.9483 251.9 25.5532 251.378 24.8946C250.856 24.3018 250.66 23.5115 250.66 22.6553C250.66 21.5357 251.052 20.6795 251.769 19.9551C252.488 19.2965 253.466 18.9013 254.641 18.9013C255.816 18.9013 256.795 19.2306 257.578 19.9551C258.361 20.6137 258.687 21.5357 258.687 22.7212H262.472C262.472 21.2723 262.146 20.021 261.493 18.9672C260.841 17.9134 259.927 17.0572 258.753 16.4645C257.578 15.8718 256.207 15.5425 254.641 15.5425C253.075 15.5425 251.704 15.8718 250.53 16.4645C249.355 17.0572 248.441 17.9134 247.854 18.9672C247.202 20.021 246.875 21.2723 246.875 22.7212C246.875 24.4994 247.397 26.0142 248.376 27.2655C249.42 28.5827 250.791 29.4389 252.553 29.8999L256.338 30.8878C257.317 31.1513 258.1 31.6781 258.622 32.3368C259.144 33.0612 259.405 33.9174 259.405 34.8394C259.405 36.0908 259.013 37.1445 258.165 37.9348C257.382 38.7252 256.273 39.1203 254.837 39.1203C253.401 39.1203 252.292 38.7252 251.443 38.0007C250.595 37.2762 250.138 36.2225 250.138 34.8394H246.353C246.353 36.4201 246.68 37.8031 247.397 38.9886C248.115 40.1741 249.094 41.0303 250.399 41.623C251.704 42.2157 253.205 42.5451 254.902 42.5451C256.599 42.5451 258.1 42.2157 259.34 41.623C260.58 41.0303 261.558 40.1082 262.211 38.9886C262.864 37.869 263.19 36.4859 263.19 34.9053C263.19 32.9953 262.668 31.3489 261.624 29.9658C260.515 28.7145 259.144 27.7924 257.317 27.2655Z" fill="black"/>
<path d="M297.581 29.6376C296.798 29.0448 295.885 28.6497 294.905 28.518V28.4521C295.819 28.2545 296.602 27.9252 297.255 27.3325C297.973 26.8056 298.495 26.147 298.821 25.3567C299.213 24.5664 299.408 23.7102 299.408 22.7881C299.408 21.3393 299.082 20.1538 298.429 19.1659C297.777 18.178 296.863 17.3877 295.689 16.7949C294.514 16.2681 293.078 15.9387 291.447 15.9387H283.746V42.3486H291.969C293.6 42.3486 295.036 42.0193 296.276 41.4265C297.451 40.8338 298.429 39.9776 299.082 38.858C299.735 37.7384 300.061 36.4212 300.061 34.9064C300.061 33.7868 299.865 32.733 299.408 31.811C298.951 30.9548 298.364 30.2303 297.581 29.6376ZM287.531 19.3634H291.447C292.752 19.3634 293.731 19.6928 294.449 20.4172C295.166 21.0758 295.558 22.0637 295.558 23.2492C295.558 24.4347 295.166 25.3567 294.449 26.0812C293.731 26.8056 292.687 27.1349 291.381 27.1349H287.466V19.3634H287.531ZM294.971 37.8701C294.188 38.5946 293.078 38.9897 291.643 38.9897H287.531V30.2962H291.643C293.078 30.2962 294.188 30.6914 294.971 31.5475C295.754 32.3379 296.211 33.4575 296.211 34.7747C296.211 36.0919 295.819 37.1456 294.971 37.8701Z" fill="black"/>
<path d="M309.523 16.0043L302.867 42.4141H306.782L308.348 35.6964H315.788L317.354 42.4141H321.27L314.614 16.0043H309.523ZM309.132 32.4692L310.959 24.8295C311.285 23.5123 311.546 22.3268 311.742 21.3389C311.938 20.351 312.068 19.6924 312.133 19.2972C312.199 19.6924 312.329 20.351 312.525 21.3389C312.721 22.3268 312.982 23.5123 313.308 24.8954L315.07 32.5351H309.132V32.4692Z" fill="black"/>
<path d="M336.476 31.0865C337.977 30.5596 339.151 29.6376 340 28.3204C340.913 27.0032 341.305 25.4884 341.305 23.7102C341.305 22.1296 340.979 20.8124 340.261 19.6269C339.543 18.4414 338.63 17.5853 337.39 16.9266C336.15 16.2681 334.714 15.9387 333.082 15.9387H324.99V42.3486H328.841V31.5475H332.626L337.52 42.4144H341.762L336.476 31.0865ZM333.148 28.1228H328.841V19.4293H333.148C334.453 19.4293 335.497 19.8245 336.215 20.6148C336.933 21.4051 337.39 22.4589 337.39 23.7761C337.39 25.0933 336.998 26.147 336.215 26.9373C335.432 27.7276 334.453 28.1228 333.148 28.1228Z" fill="black"/>
<path d="M114.268 9.28662C106.046 9.28662 19.7082 9.28662 11.4856 9.28662C3.26295 9.28662 0 15.4116 0 29.1763C0 42.941 3.26295 49 11.4856 49C18.3378 49 107.482 49 114.268 49C122.491 49 125.754 42.8752 125.754 29.1763C125.754 15.4774 122.557 9.28662 114.268 9.28662ZM38.8944 38.726C38.1113 39.9114 37.0671 40.7677 35.6967 41.4262C34.3262 42.0849 32.8253 42.3483 30.998 42.3483H22.2533V16.0043H30.6717C32.4337 16.0043 33.9347 16.2677 35.2399 16.8605C36.5451 17.4532 37.5239 18.2436 38.307 19.2315C39.0249 20.2193 39.4165 21.4048 39.4165 22.7879C39.4165 23.7758 39.2207 24.6978 38.8944 25.4881C38.5681 26.2784 37.9807 26.8712 37.3282 27.3981C36.6756 27.925 35.8925 28.1884 35.0441 28.3201V28.386C36.023 28.4519 36.8713 28.847 37.6545 29.4398C38.4376 30.0325 39.0249 30.757 39.4165 31.679C39.808 32.601 40.069 33.5889 40.069 34.7744C40.0038 36.2892 39.6122 37.6064 38.8944 38.726ZM60.7563 34.6427C60.7563 37.1454 59.9731 39.1211 58.4722 40.5701C56.9713 42.019 54.8175 42.7434 52.142 42.7434C49.4665 42.7434 47.3779 42.019 45.877 40.5701C44.3761 39.1211 43.5929 37.1454 43.5929 34.6427V16.0043H48.9443V34.6427C48.9443 35.7623 49.2054 36.6185 49.7927 37.2112C50.3801 37.8039 51.1629 38.0674 52.2072 38.0674C53.1859 38.0674 53.9691 37.8039 54.5564 37.2112C55.1438 36.6185 55.4049 35.7623 55.4049 34.6427V16.0043H60.7563V34.6427ZM81.6392 39.0553C80.9211 40.2408 79.8772 41.1628 78.5067 41.7556C77.1361 42.4141 75.5701 42.7434 73.7425 42.7434C71.9154 42.7434 70.2838 42.4141 68.9136 41.7556C67.5431 41.0969 66.4988 40.1749 65.716 38.9894C64.9327 37.8039 64.6065 36.4209 64.6065 34.7744H69.8272C69.8272 35.7623 70.1534 36.5526 70.8711 37.1454C71.5892 37.7381 72.5027 38.0015 73.7425 38.0015C74.9172 38.0015 75.8312 37.7381 76.4836 37.1454C77.1361 36.5526 77.4624 35.8282 77.4624 34.9061C77.4624 34.1817 77.2669 33.4572 76.8099 32.8645C76.3529 32.2717 75.7656 31.8766 74.9172 31.679L71.7195 30.8887C69.6964 30.4276 68.0652 29.4398 66.8254 28.0567C65.5852 26.6736 64.9979 25.0271 64.9979 23.0513C64.9979 21.4707 65.3241 20.1535 66.0422 19.0339C66.6947 17.9143 67.6734 16.9922 68.9788 16.3995C70.2838 15.8068 71.7851 15.4774 73.547 15.4774C75.309 15.4774 76.8099 15.8068 78.1148 16.3995C79.4202 16.9922 80.399 17.9143 81.117 19.0339C81.8347 20.1535 82.1609 21.5365 82.1609 23.0513H76.9402C76.9402 22.1293 76.614 21.4048 76.0266 20.878C75.4393 20.3511 74.5909 20.0876 73.547 20.0876C72.5027 20.0876 71.7195 20.3511 71.1322 20.878C70.5448 21.4048 70.2838 22.0634 70.2838 22.9196C70.2838 23.6441 70.4797 24.1709 70.9367 24.632C71.3932 25.093 71.9806 25.3564 72.7638 25.554L76.0266 26.3443C78.1148 26.8053 79.7465 27.7932 80.9211 29.308C82.0958 30.8228 82.7482 32.6669 82.7482 34.8403C82.7482 36.4867 82.3568 37.8698 81.6392 39.0553ZM97.8231 32.9962V42.4141H92.472V32.9962L84.9672 16.0043H90.5793L93.9078 23.9734C94.234 24.7637 94.5602 25.6199 94.7561 26.476C95.0172 27.3322 95.2127 28.1226 95.2783 28.6494C95.4086 28.1226 95.5394 27.3981 95.8 26.476C95.996 25.554 96.3222 24.7637 96.5833 23.9734L99.781 16.0043H105.394L97.8231 32.9962Z" fill="black"/>
<path d="M31.1938 5.00507C31.1938 1.90965 30.2149 0.921753 27.1477 0.921753H17.9462C14.879 0.921753 13.9001 1.90965 13.9001 5.00507V6.19053H31.1938V5.00507Z" fill="black"/>
<path d="M112.05 5.00507C112.05 1.90965 111.071 0.921753 108.004 0.921753H98.6064C95.5395 0.921753 94.5603 1.90965 94.5603 5.00507V6.19053H112.05V5.00507Z" fill="black"/>
<path d="M86.5332 4.08332C86.5332 0.9879 85.5545 0 82.4871 0H43.2666C40.2646 0 39.2205 0.9879 39.2205 4.08332V6.19085H86.5332V4.08332Z" fill="black"/>
</g>
<defs>
<clipPath id="clip0_210_12319">
<rect width="342" height="49" fill="white"/>
</clipPath>
</defs>
</svg>
