<svg width="26" height="32" viewBox="0 0 26 32" fill="none" xmlns="http://www.w3.org/2000/svg">
<path d="M17.5312 5.34375C16.4844 6.60938 14.7344 7.54688 13.3438 7.54688C13.1719 7.54688 13.0156 7.51562 12.9219 7.5C12.9062 7.42188 12.8594 7.1875 12.8594 6.9375C12.8594 5.34375 13.6719 3.75 14.5625 2.75C15.6719 1.4375 17.5469 0.46875 19.1094 0.40625C19.1406 0.578125 19.1562 0.796875 19.1562 1.01562C19.1562 2.60938 18.4844 4.1875 17.5312 5.34375ZM18.625 7.875C19.5 7.875 22.6719 7.96875 24.75 10.9531C24.5625 11.0938 21.4219 12.875 21.4219 16.8438C21.4219 21.4219 25.4219 23.0625 25.5469 23.0938C25.5312 23.2031 24.9062 25.3125 23.4375 27.4844C22.1094 29.375 20.7188 31.2969 18.625 31.2969C16.5156 31.2969 15.9688 30.0625 13.5625 30.0625C11.1875 30.0625 10.3438 31.3281 8.4375 31.3281C6.5 31.3281 5.15625 29.5625 3.625 27.4062C1.82812 24.8594 0.390625 20.9062 0.390625 17.1562C0.390625 11.1562 4.29688 7.96875 8.15625 7.96875C10.1875 7.96875 11.875 9.29688 13.1719 9.29688C14.3906 9.29688 16.2969 7.875 18.625 7.875Z" fill="black"/>
</svg>
