<svg width="43" height="42" viewBox="0 0 43 42" fill="none" xmlns="http://www.w3.org/2000/svg">
<path d="M34.1001 21.3071C34.1001 20.4391 34.0161 19.5431 33.8761 18.7031H21.7521V23.6591H28.6961C28.4161 25.2551 27.4921 26.6551 26.1201 27.5511L30.2641 30.7711C32.7001 28.5031 34.1001 25.1991 34.1001 21.3071Z" fill="#4280EF"/>
<path d="M21.752 33.8517C25.224 33.8517 28.136 32.7037 30.264 30.7437L26.12 27.5517C24.972 28.3357 23.488 28.7837 21.752 28.7837C18.392 28.7837 15.564 26.5157 14.528 23.4917L10.272 26.7677C12.456 31.1077 16.88 33.8517 21.752 33.8517Z" fill="#34A353"/>
<path d="M14.5283 23.4625C13.9963 21.8665 13.9963 20.1305 14.5283 18.5345L10.2723 15.2305C8.45235 18.8705 8.45235 23.1545 10.2723 26.7665L14.5283 23.4625Z" fill="#F6B704"/>
<path d="M21.752 13.2432C23.572 13.2152 25.364 13.9152 26.68 15.1752L30.348 11.4792C28.024 9.29522 24.944 8.11922 21.752 8.14722C16.88 8.14722 12.456 10.8912 10.272 15.2312L14.528 18.5352C15.564 15.4832 18.392 13.2432 21.752 13.2432Z" fill="#E54335"/>
</svg>
