<svg width="26" height="26" viewBox="0 0 26 26" fill="none" xmlns="http://www.w3.org/2000/svg">
<rect y="8.66663" width="2.16667" height="8.66667" fill="black"/>
<rect x="23.8333" y="8.66663" width="2.16667" height="8.66667" fill="black"/>
<rect x="2.16666" y="4.33337" width="2.16667" height="4.33333" fill="black"/>
<rect width="2.16667" height="4.33333" transform="matrix(-1 0 0 1 23.8333 4.33337)" fill="black"/>
<rect x="2.16666" y="17.3334" width="2.16667" height="4.33333" fill="black"/>
<rect x="4.33334" y="21.6666" width="4.33333" height="2.16667" fill="black"/>
<rect x="17.3333" y="21.6666" width="4.33333" height="2.16667" fill="black"/>
<rect x="21.6667" y="17.3334" width="2.16667" height="4.33333" fill="black"/>
<rect x="17.3333" y="23.8334" width="2.16667" height="8.66667" transform="rotate(90 17.3333 23.8334)" fill="black"/>
<rect x="8.66602" y="8.66663" width="2.16667" height="2.16667" fill="black"/>
<rect x="12.9993" y="2.16663" width="2.16667" height="2.16667" fill="black"/>
<rect x="15.166" y="4.33337" width="2.16667" height="2.16667" fill="black"/>
<rect x="17.3327" y="6.5" width="2.16667" height="2.16667" fill="black"/>
<rect x="15.166" width="2.16667" height="2.16667" fill="black"/>
<rect x="17.3327" width="2.16667" height="2.16667" fill="black"/>
<rect x="8.66602" y="2.16663" width="2.16667" height="2.16667" fill="black"/>
<rect x="6.49934" y="2.16663" width="2.16667" height="2.16667" fill="black"/>
<rect x="4.33268" width="2.16667" height="2.16667" fill="black"/>
<rect x="12.9993" y="8.66663" width="2.16667" height="2.16667" fill="black"/>
<rect x="15.166" y="10.8334" width="2.16667" height="2.16667" fill="black"/>
<rect x="17.3327" y="10.8334" width="2.16667" height="2.16667" fill="black"/>
<rect x="6.49934" y="8.66663" width="2.16667" height="2.16667" fill="black"/>
<rect x="4.33268" y="10.8334" width="2.16667" height="2.16667" fill="black"/>
<rect x="10.8327" y="4.33337" width="4.33333" height="4.33333" fill="black"/>
</svg>
