<svg width="26" height="26" viewBox="0 0 26 26" fill="none" xmlns="http://www.w3.org/2000/svg">
<path fill-rule="evenodd" clip-rule="evenodd" d="M21.6667 0.00012207V2.16679L4.33333 2.16679V0.00012207H21.6667ZM2.16667 4.33346V2.16679L4.33333 2.16679L4.33333 4.33346H2.16667ZM2.16667 21.6668H0V4.33346H2.16667V21.6668ZM4.33333 23.8335V21.6668L2.16667 21.6668V23.8335H4.33333ZM21.6667 23.8335H4.33333L4.33333 26.0001H21.6667V23.8335ZM23.8333 21.6668H21.6667V23.8335H23.8333V21.6668ZM23.8333 4.33346V2.16679H21.6667V4.33346H19.5V6.50012H21.6667V4.33346H23.8333ZM23.8333 4.33346H26V21.6668L23.8333 21.6668V4.33346ZM10.8333 6.50012H15.1667V8.66679H10.8333V6.50012ZM8.66667 10.8335V8.66679L10.8333 8.66679L10.8333 10.8335L8.66667 10.8335ZM8.66667 15.1668H6.5V10.8335H8.66667V15.1668ZM10.8333 17.3335H8.66667V15.1668H10.8333L10.8333 17.3335ZM15.1667 17.3335V19.5001H10.8333V17.3335H15.1667ZM17.3333 15.1668V17.3335H15.1667L15.1667 15.1668H17.3333ZM17.3333 10.8335L19.5 10.8335V15.1668H17.3333V10.8335ZM17.3333 10.8335V8.66679L15.1667 8.66679L15.1667 10.8335H17.3333Z" fill="black"/>
</svg>
