<svg width="119" height="106" viewBox="0 0 119 106" fill="none" xmlns="http://www.w3.org/2000/svg">
<g clip-path="url(#clip0_129_17311)">
<path fill-rule="evenodd" clip-rule="evenodd" d="M22.3513 31.6713C20.4044 8.89459 43.6608 -1.26279 59.4739 8.59154L59.4739 36.7391H44.9772C42.7541 36.7391 41.9808 37.4693 41.9808 39.7572V41.3149H59.4739V43.603H21.4407C15.3512 43.603 12.9348 48.1301 12.9348 58.3041C12.9348 68.4781 15.3512 72.9566 21.4407 72.9566H59.4739L59.4738 80.7909H25.9803C-4.14733 80.7909 -11.4961 38.9825 22.3513 31.6713ZM59.476 41.3149V43.603H97.5593C103.697 43.603 106.065 48.1788 106.065 58.3041C106.065 68.4294 103.649 72.9566 97.5593 72.9566H59.476V80.7914L92.913 80.7914C107.267 80.7914 118.95 69.7284 118.95 56.1385C118.95 43.4221 109.406 34.0038 96.5252 31.7295C90.4609 21.4743 81.5353 17.7782 69.324 19.6307C66.8381 14.6958 63.4229 11.0739 59.5605 8.64549L59.476 8.59203V36.7391H74.0231C76.2946 36.7391 77.0195 37.4693 77.0195 39.7572V41.3149H59.476ZM41.739 65.3626C41.1591 66.2388 40.3858 66.8717 39.3709 67.3585C38.356 67.8452 37.2444 68.04 35.8912 68.04H29.4151V48.5682H35.6495C36.9544 48.5682 38.066 48.763 39.0326 49.2011C39.9992 49.6392 40.7241 50.2233 41.304 50.9535C41.8357 51.6837 42.1256 52.5599 42.1256 53.5822C42.1256 54.3124 41.9807 54.9939 41.739 55.5781C41.4974 56.1622 41.0624 56.6003 40.5791 56.9898C40.0958 57.3792 39.5159 57.5739 38.8876 57.6713V57.7199C39.6125 57.7686 40.2408 58.0607 40.8208 58.4988C41.4007 58.9369 41.8357 59.4724 42.1256 60.1539C42.4156 60.8354 42.6089 61.5656 42.6089 62.4418C42.5606 63.5615 42.2706 64.5351 41.739 65.3626ZM57.9293 62.3445C57.9293 64.1943 57.3493 65.6547 56.2378 66.7256C55.1262 67.7966 53.5313 68.332 51.5498 68.332C49.5683 68.332 48.0218 67.7966 46.9102 66.7256C45.7987 65.6547 45.2187 64.1943 45.2187 62.3445V48.5682H49.1817V62.3445C49.1817 63.172 49.375 63.8049 49.81 64.243C50.245 64.6811 50.8249 64.8758 51.5982 64.8758C52.3231 64.8758 52.9031 64.6811 53.338 64.243C53.773 63.8049 53.9663 63.172 53.9663 62.3445V48.5682H57.9293V62.3445ZM73.3947 65.606C72.863 66.4822 72.0898 67.1637 71.0749 67.6018C70.0599 68.0886 68.9 68.332 67.5468 68.332C66.1936 68.332 64.9854 68.0886 63.9705 67.6018C62.9555 67.1151 62.1823 66.4335 61.6023 65.5573C61.0224 64.6811 60.7807 63.6588 60.7807 62.4418H64.6471C64.6471 63.172 64.8887 63.7562 65.4203 64.1943C65.952 64.6324 66.6286 64.8271 67.5468 64.8271C68.4167 64.8271 69.0934 64.6324 69.5766 64.1943C70.0599 63.7562 70.3016 63.2207 70.3016 62.5392C70.3016 62.0037 70.1566 61.4683 69.8183 61.0301C69.48 60.592 69.045 60.3 68.4167 60.1539L66.0486 59.5698C64.5504 59.229 63.3422 58.4988 62.4239 57.4766C61.5057 56.4543 61.0707 55.2373 61.0707 53.7769C61.0707 52.6086 61.3123 51.635 61.844 50.8075C62.3273 49.9799 63.0522 49.2984 64.0188 48.8603C64.9854 48.4222 66.0969 48.1788 67.4018 48.1788C68.7067 48.1788 69.8183 48.4222 70.7849 48.8603C71.7515 49.2984 72.4764 49.9799 73.008 50.8075C73.5396 51.635 73.7813 52.6573 73.7813 53.7769H69.9149C69.9149 53.0954 69.6733 52.5599 69.2383 52.1705C68.8034 51.7811 68.1751 51.5864 67.4018 51.5864C66.6286 51.5864 66.0486 51.7811 65.6136 52.1705C65.1787 52.5599 64.9854 53.0467 64.9854 53.6796C64.9854 54.215 65.1304 54.6045 65.4687 54.9452C65.807 55.286 66.2419 55.4807 66.8219 55.6267L69.2383 56.2109C70.7849 56.5516 71.9931 57.2818 72.863 58.4015C73.733 59.5211 74.2163 60.8841 74.2163 62.4905C74.2163 63.7075 73.9263 64.7298 73.3947 65.606ZM85.3803 61.1275V68.0886H81.4173V61.1275L75.8595 48.5682H80.0158L82.4806 54.4584C82.7222 55.0426 82.9638 55.6754 83.1088 56.3083C83.3022 56.9411 83.4471 57.5252 83.4955 57.9147C83.5277 57.7849 83.5599 57.6388 83.5957 57.4766C83.6673 57.152 83.7532 56.7626 83.8821 56.3083C83.988 55.8104 84.1455 55.3644 84.2981 54.9325L84.2982 54.9322C84.3544 54.773 84.41 54.6157 84.4621 54.4584L86.8302 48.5682H90.9865L85.3803 61.1275ZM33.0386 37.4206C35.3101 37.4206 36.035 38.1508 36.035 40.4387V41.3149H23.2278V40.4387C23.2278 38.1508 23.9527 37.4206 26.2242 37.4206H33.0386ZM95.9171 40.4387C95.9171 38.1508 95.1922 37.4206 92.9207 37.4206H85.9613C83.6898 37.4206 82.9649 38.1508 82.9649 40.4387V41.3149H95.9171V40.4387ZM35.7457 59.57H33.2809V64.8274H35.794C36.6639 64.8274 37.3405 64.584 37.8238 64.1458C38.3071 63.6591 38.5488 63.0262 38.5488 62.1987C38.5488 61.3711 38.3071 60.7383 37.8238 60.2515C37.2922 59.8134 36.6156 59.57 35.7457 59.57ZM38.1138 54.0683C38.1138 54.7985 37.8722 55.3339 37.4372 55.7721C37.0022 56.2102 36.3739 56.4049 35.6007 56.4049H33.2809V51.7803H35.6007C36.3739 51.7803 37.0022 51.9751 37.4372 52.3645C37.8722 52.7539 38.1138 53.3381 38.1138 54.0683Z" fill="#666666"/>
</g>
<path d="M34.7284 103.27C30.8044 103.27 28.6264 100.444 28.6264 96.592C28.6264 92.668 30.8764 89.86 34.8004 89.86C38.2024 89.86 40.1104 91.93 40.4164 94.756H37.5724C37.3384 93.406 36.6724 92.146 34.6924 92.146C32.2804 92.146 31.4884 94.09 31.4884 96.556C31.4884 99.04 32.2804 100.984 34.6924 100.984C36.6904 100.984 37.3924 99.724 37.5724 98.23H40.4164C40.1284 101.146 38.1664 103.27 34.7284 103.27ZM51.1188 103H42.3168V90.13H45.0888V100.696H51.1188V103ZM57.9222 103.27C53.9262 103.27 51.5682 100.444 51.5682 96.556C51.5682 92.686 53.9262 89.86 57.9222 89.86C61.9002 89.86 64.2762 92.686 64.2762 96.556C64.2762 100.444 61.9002 103.27 57.9222 103.27ZM57.9222 100.984C60.5142 100.984 61.4322 98.95 61.4322 96.556C61.4322 94.162 60.5142 92.146 57.9222 92.146C55.3122 92.146 54.4302 94.162 54.4302 96.556C54.4302 98.95 55.3122 100.984 57.9222 100.984ZM71.4438 103.27C67.6818 103.27 66.1878 101.506 66.1878 98.464V90.13H68.9778V98.464C68.9778 100.246 69.7878 100.984 71.4438 100.984C73.0998 100.984 73.9278 100.246 73.9278 98.464V90.13H76.6998V98.464C76.6998 101.506 75.2058 103.27 71.4438 103.27ZM84.7433 103H79.1993V90.13H84.5993C88.1813 90.13 90.3413 92.434 90.3413 96.574C90.3413 100.714 88.3073 103 84.7433 103ZM81.9713 100.696H84.3293C86.7053 100.696 87.4973 98.968 87.4973 96.574C87.4973 94.18 86.7053 92.434 84.3293 92.434H81.9713V100.696Z" fill="#666666"/>
<defs>
<clipPath id="clip0_129_17311">
<rect width="119" height="86" fill="white"/>
</clipPath>
</defs>
</svg>
