<svg width="42" height="42" viewBox="0 0 42 42" fill="none" xmlns="http://www.w3.org/2000/svg">
<path fill-rule="evenodd" clip-rule="evenodd" d="M21 19.8553C17.8589 19.8553 14.8431 21.0868 12.6 23.2856C12.0741 23.801 11.2299 23.7926 10.7145 23.2667C10.199 22.7408 10.2074 21.8966 10.7333 21.3812C13.4749 18.6938 17.1609 17.1886 21 17.1886C24.839 17.1886 28.525 18.6938 31.2666 21.3812C31.7925 21.8966 31.801 22.7408 31.2855 23.2667C30.77 23.7926 29.9259 23.801 29.4 23.2856C27.1568 21.0868 24.141 19.8553 21 19.8553Z" fill="#42C201"/>
<path fill-rule="evenodd" clip-rule="evenodd" d="M21 26.4277C19.604 26.4277 18.2636 26.975 17.2667 27.9522C16.7408 28.4677 15.8966 28.4592 15.3811 27.9334C14.8657 27.4075 14.8741 26.5633 15.4 26.0478C16.8954 24.582 18.906 23.761 21 23.761C23.094 23.761 25.1046 24.582 26.6 26.0478C27.1259 26.5633 27.1343 27.4075 26.6189 27.9334C26.1034 28.4592 25.2592 28.4677 24.7333 27.9522C23.7364 26.975 22.396 26.4277 21 26.4277Z" fill="#42C201"/>
<path fill-rule="evenodd" clip-rule="evenodd" d="M21 13.0004C16.4084 13.0004 11.9779 14.6927 8.55555 17.7538C8.00668 18.2447 7.16377 18.1977 6.67285 17.6488C6.18193 17.1 6.22891 16.2571 6.77777 15.7661C10.689 12.2678 15.7525 10.3337 21 10.3337C26.2475 10.3337 31.3109 12.2678 35.2222 15.7661C35.7711 16.2571 35.8181 17.1 35.3271 17.6488C34.8362 18.1977 33.9933 18.2447 33.4444 17.7538C30.0221 14.6927 25.5916 13.0004 21 13.0004Z" fill="#42C201"/>
<path fill-rule="evenodd" clip-rule="evenodd" d="M19.6667 31.6667C19.6667 30.9303 20.2636 30.3334 21 30.3334H21.0134C21.7497 30.3334 22.3467 30.9303 22.3467 31.6667C22.3467 32.4031 21.7497 33 21.0134 33H21C20.2636 33 19.6667 32.4031 19.6667 31.6667Z" fill="#42C201"/>
</svg>
