<svg width="26" height="26" viewBox="0 0 26 26" fill="none" xmlns="http://www.w3.org/2000/svg">
<g clip-path="url(#clip0_105_8183)">
<path fill-rule="evenodd" clip-rule="evenodd" d="M10.8333 0.00012207H8.66667V4.33346H10.8333L10.8333 6.50012H6.5L6.5 8.66687H4.33333V10.8334H0V13H4.33333H15.1667V13.0001H4.33333V15.1668H21.6667V13.0002V13.0001V13H26V10.8334H21.6667V8.66687H19.5V6.50012H15.1667V4.33337H10.8333L10.8333 0.00012207ZM4.33333 4.33337H6.5V6.50004H4.33333V4.33337ZM15.1667 0.00012207H17.3333V4.33346H15.1667V0.00012207ZM21.6667 4.33337H19.5V6.50004H21.6667V4.33354H23.8333V2.16687H21.6667V4.33337ZM2.16667 2.16687H4.33333V4.33354H2.16667V2.16687ZM4.33333 17.3334H2.16667V21.6669V23.8335V26H4.33333V23.8335H8.66667V21.6669H4.33333V17.3334ZM8.66667 17.3334H10.8333V26H8.66667V19.5H4.33333V17.3334H8.66667ZM15.1667 17.3334H13V26H15.1667L15.1667 21.6669H17.3333V23.8334H19.5V21.6669H21.6667V26H23.8333V17.3334H21.6667V19.5002H19.5V21.6667H17.3333V19.5002H15.1667L15.1667 17.3334Z" fill="black"/>
</g>
<defs>
<clipPath id="clip0_105_8183">
<rect width="26" height="26" fill="white"/>
</clipPath>
</defs>
</svg>
