<svg width="43" height="42" viewBox="0 0 43 42" fill="none" xmlns="http://www.w3.org/2000/svg">
<path fill-rule="evenodd" clip-rule="evenodd" d="M22.0102 19.7682C22.5085 19.9745 22.8333 20.4607 22.8333 21V31.1144L27.2239 26.7239C27.7446 26.2032 28.5888 26.2032 29.1095 26.7239C29.6302 27.2446 29.6302 28.0888 29.1095 28.6095L22.4428 35.2761C22.0615 35.6575 21.488 35.7715 20.9898 35.5652C20.4915 35.3588 20.1667 34.8726 20.1667 34.3333V24.2189L15.7761 28.6095C15.2554 29.1302 14.4112 29.1302 13.8905 28.6095C13.3698 28.0888 13.3698 27.2446 13.8905 26.7239L20.5572 20.0572C20.9385 19.6759 21.512 19.5618 22.0102 19.7682Z" fill="#999999"/>
<path fill-rule="evenodd" clip-rule="evenodd" d="M7.22378 6.7239C7.74448 6.2032 8.5887 6.2032 9.10939 6.7239L35.7761 33.3906C36.2968 33.9113 36.2968 34.7555 35.7761 35.2762C35.2554 35.7969 34.4111 35.7969 33.8904 35.2762L7.22378 8.60952C6.70308 8.08882 6.70308 7.2446 7.22378 6.7239Z" fill="#999999"/>
<path fill-rule="evenodd" clip-rule="evenodd" d="M20.9898 6.43478C21.4881 6.22841 22.0616 6.34248 22.4429 6.72382L29.1096 13.3905C29.6303 13.9112 29.6303 14.7554 29.1096 15.2761L25.7762 18.6094C25.2555 19.1301 24.4113 19.1301 23.8906 18.6094C23.3699 18.0887 23.3699 17.2445 23.8906 16.7238L26.2811 14.3333L22.8334 10.8856V13.6666C22.8334 14.403 22.2365 15 21.5001 15C20.7637 15 20.1667 14.403 20.1667 13.6666V7.66662C20.1667 7.12734 20.4916 6.64116 20.9898 6.43478Z" fill="#999999"/>
</svg>
