<svg width="92" height="48" viewBox="0 0 92 48" fill="none" xmlns="http://www.w3.org/2000/svg">
<path d="M25.9059 5.16667C25.9059 3.97005 26.8759 3 28.0726 3H30.7392C31.9358 3 32.9059 3.97005 32.9059 5.16667H25.9059Z" fill="#999999"/>
<path d="M58.9059 5.16667C58.9059 3.97005 59.8759 3 61.0726 3H63.7392C64.9358 3 65.9059 3.97005 65.9059 5.16667H58.9059Z" fill="#999999"/>
<path d="M36.9059 5.16667C36.9059 3.97005 37.8759 3 39.0726 3H52.7392C53.9358 3 54.9059 3.97005 54.9059 5.16667H36.9059Z" fill="#999999"/>
<path fill-rule="evenodd" clip-rule="evenodd" d="M18.2849 8.55865C16.9587 10.2314 16.9915 12.6959 17.0569 17.625C16.9915 22.554 16.9587 25.0186 18.2849 26.6913C18.562 27.0408 18.8772 27.3583 19.2246 27.6379C20.8875 28.9763 23.3523 28.9617 28.2817 28.9324L45.9059 28.8276L63.5301 28.9324C68.4595 28.9617 70.9242 28.9763 72.5871 27.6379C72.9346 27.3583 73.2497 27.0408 73.5268 26.6913C74.853 25.0186 74.8203 22.554 74.7548 17.625C74.8203 12.6959 74.853 10.2314 73.5268 8.55864C73.2497 8.20918 72.9346 7.8917 72.5871 7.61208C70.9242 6.27365 68.4595 6.28829 63.53 6.31759L45.9059 6.42233L28.2817 6.31759C23.3523 6.28829 20.8875 6.27365 19.2246 7.61208C18.8772 7.8917 18.562 8.20918 18.2849 8.55865ZM22.9057 8C20.6966 8 18.9057 9.79086 18.9057 12V23C18.9057 25.2091 20.6966 27 22.9057 27H45.9057H68.9057C71.1148 27 72.9057 25.2091 72.9057 23V12C72.9057 9.79086 71.1148 8 68.9057 8H45.9057H22.9057Z" fill="#999999"/>
<path d="M20.9059 12C20.9059 10.8954 21.8013 10 22.9059 10H45.9059H68.9059C70.0105 10 70.9059 10.8954 70.9059 12V23C70.9059 24.1046 70.0105 25 68.9059 25H45.9059H22.9059C21.8013 25 20.9059 24.1046 20.9059 23V12Z" fill="#999999"/>
<path d="M28.9053 46H25.6173V37.42H28.8813C31.2573 37.42 32.6973 38.956 32.6973 41.716C32.6973 44.476 31.2813 46 28.9053 46ZM26.9373 44.86H28.8213C30.8133 44.86 31.3293 43.372 31.3293 41.716C31.3293 40.06 30.8133 38.56 28.8213 38.56H26.9373V44.86ZM40.1999 46H34.0079V37.42H40.0799V38.56H35.3279V40.996H39.4919V42.136H35.3279V44.86H40.1999V46ZM45.0513 46H43.6233L40.5993 37.42H42.0513L44.3313 44.608H44.3433L46.6113 37.42H48.0033L45.0513 46ZM50.2927 46H48.9727V37.42H50.2927V46ZM55.5842 46.168C53.1482 46.168 51.5762 44.296 51.5762 41.716C51.5762 39.124 53.1602 37.252 55.5962 37.252C57.7442 37.252 59.0762 38.62 59.2802 40.336H57.9002C57.7442 39.496 57.2162 38.392 55.5722 38.392C53.6762 38.392 52.9562 40 52.9562 41.704C52.9562 43.42 53.6762 45.028 55.5722 45.028C57.2282 45.028 57.8162 43.924 57.9002 42.88H59.2802C59.0882 44.788 57.7442 46.168 55.5842 46.168ZM66.6608 46H60.4688V37.42H66.5408V38.56H61.7888V40.996H65.9528V42.136H61.7888V44.86H66.6608V46Z" fill="#999999"/>
</svg>
