<svg width="43" height="42" viewBox="0 0 43 42" fill="none" xmlns="http://www.w3.org/2000/svg">
<path fill-rule="evenodd" clip-rule="evenodd" d="M20.9898 6.43478C21.488 6.22841 22.0615 6.34248 22.4428 6.72382L29.1095 13.3905C29.6302 13.9112 29.6302 14.7554 29.1095 15.2761L23.3856 21L29.1095 26.7238C29.6302 27.2445 29.6302 28.0887 29.1095 28.6094L22.4428 35.2761C22.0615 35.6574 21.488 35.7715 20.9898 35.5651C20.4915 35.3588 20.1667 34.8726 20.1667 34.3333V24.2189L15.7761 28.6094C15.2554 29.1301 14.4112 29.1301 13.8905 28.6094C13.3698 28.0887 13.3698 27.2445 13.8905 26.7238L19.6144 21L13.8905 15.2761C13.3698 14.7554 13.3698 13.9112 13.8905 13.3905C14.4112 12.8698 15.2554 12.8698 15.7761 13.3905L20.1667 17.781V7.66662C20.1667 7.12734 20.4915 6.64116 20.9898 6.43478ZM22.8333 24.2189L26.281 27.6666L22.8333 31.1143V24.2189ZM22.8333 17.781V10.8856L26.281 14.3333L22.8333 17.781Z" fill="#137FF1"/>
<path fill-rule="evenodd" clip-rule="evenodd" d="M32.33 16.2844C32.8504 15.7634 33.6946 15.7629 34.2156 16.2833C34.8355 16.9025 35.3272 17.6377 35.6627 18.447C35.9982 19.2564 36.1709 20.1239 36.1709 21C36.1709 21.8761 35.9982 22.7436 35.6627 23.5529C35.3272 24.3622 34.8355 25.0975 34.2156 25.7166C33.6946 26.2371 32.8504 26.2366 32.33 25.7156C31.8096 25.1946 31.8101 24.3504 32.3311 23.83C32.703 23.4585 32.998 23.0173 33.1993 22.5317C33.4006 22.0461 33.5042 21.5256 33.5042 21C33.5042 20.4743 33.4006 19.9538 33.1993 19.4682C32.998 18.9826 32.703 18.5415 32.3311 18.17C31.8101 17.6496 31.8096 16.8053 32.33 16.2844Z" fill="#137FF1"/>
<path fill-rule="evenodd" clip-rule="evenodd" d="M28.1667 21C28.1667 20.2636 28.7636 19.6666 29.5 19.6666H29.5133C30.2497 19.6666 30.8467 20.2636 30.8467 21C30.8467 21.7363 30.2497 22.3333 29.5133 22.3333H29.5C28.7636 22.3333 28.1667 21.7363 28.1667 21Z" fill="#137FF1"/>
</svg>
